<mxfile host="app.diagrams.net" modified="2020-06-30T16:53:09.937Z" agent="5.0 (Windows NT 10.0; Win64; x64) AppleWebKit/537.36 (KHTML, like Gecko) Chrome/83.0.4103.116 Safari/537.36" etag="A5L6tyKvHcAM_DCprcTb" version="13.3.5" type="github">
  <diagram id="A9aJcVBGaKrG88D0Sguz" name="Page-1">
    <mxGraphModel dx="1422" dy="794" grid="1" gridSize="10" guides="1" tooltips="1" connect="1" arrows="1" fold="1" page="1" pageScale="1" pageWidth="1100" pageHeight="1700" math="0" shadow="0">
      <root>
        <mxCell id="0" />
        <mxCell id="1" parent="0" />
        <mxCell id="OAjG6ugZ-eWth2I8EmIu-1" value="" style="group" parent="1" vertex="1" connectable="0">
          <mxGeometry x="570" y="730" width="30" height="30" as="geometry" />
        </mxCell>
        <mxCell id="OAjG6ugZ-eWth2I8EmIu-2" value="" style="ellipse;whiteSpace=wrap;html=1;aspect=fixed;fillColor=#dae8fc;strokeColor=#6c8ebf;" parent="OAjG6ugZ-eWth2I8EmIu-1" vertex="1">
          <mxGeometry width="30" height="30" as="geometry" />
        </mxCell>
        <mxCell id="OAjG6ugZ-eWth2I8EmIu-3" value="" style="ellipse;whiteSpace=wrap;html=1;aspect=fixed;fillColor=#dae8fc;strokeColor=#6c8ebf;" parent="OAjG6ugZ-eWth2I8EmIu-1" vertex="1">
          <mxGeometry x="10" y="10" width="10" height="10" as="geometry" />
        </mxCell>
        <mxCell id="OAjG6ugZ-eWth2I8EmIu-6" style="edgeStyle=orthogonalEdgeStyle;rounded=0;orthogonalLoop=1;jettySize=auto;html=1;exitX=0.5;exitY=1;exitDx=0;exitDy=0;" parent="1" source="OAjG6ugZ-eWth2I8EmIu-4" target="OAjG6ugZ-eWth2I8EmIu-5" edge="1">
          <mxGeometry relative="1" as="geometry" />
        </mxCell>
        <mxCell id="OAjG6ugZ-eWth2I8EmIu-4" value="" style="ellipse;whiteSpace=wrap;html=1;aspect=fixed;fillColor=#dae8fc;strokeColor=#6c8ebf;" parent="1" vertex="1">
          <mxGeometry x="530" y="80" width="30" height="30" as="geometry" />
        </mxCell>
        <mxCell id="OAjG6ugZ-eWth2I8EmIu-8" style="edgeStyle=orthogonalEdgeStyle;rounded=0;orthogonalLoop=1;jettySize=auto;html=1;exitX=0.5;exitY=1;exitDx=0;exitDy=0;entryX=0.5;entryY=0;entryDx=0;entryDy=0;" parent="1" source="OAjG6ugZ-eWth2I8EmIu-5" target="OAjG6ugZ-eWth2I8EmIu-7" edge="1">
          <mxGeometry relative="1" as="geometry" />
        </mxCell>
        <mxCell id="OAjG6ugZ-eWth2I8EmIu-5" value="Enter course id" style="rounded=1;whiteSpace=wrap;html=1;" parent="1" vertex="1">
          <mxGeometry x="485" y="160" width="120" height="60" as="geometry" />
        </mxCell>
        <mxCell id="OAjG6ugZ-eWth2I8EmIu-14" style="edgeStyle=orthogonalEdgeStyle;rounded=0;orthogonalLoop=1;jettySize=auto;html=1;exitX=0.5;exitY=1;exitDx=0;exitDy=0;entryX=0.5;entryY=0;entryDx=0;entryDy=0;" parent="1" source="OAjG6ugZ-eWth2I8EmIu-7" target="OAjG6ugZ-eWth2I8EmIu-13" edge="1">
          <mxGeometry relative="1" as="geometry" />
        </mxCell>
        <mxCell id="OAjG6ugZ-eWth2I8EmIu-7" value="Query student table for matching course id&#39;s" style="rounded=1;whiteSpace=wrap;html=1;" parent="1" vertex="1">
          <mxGeometry x="485" y="270" width="120" height="60" as="geometry" />
        </mxCell>
        <mxCell id="OAjG6ugZ-eWth2I8EmIu-10" style="edgeStyle=orthogonalEdgeStyle;rounded=0;orthogonalLoop=1;jettySize=auto;html=1;exitX=1;exitY=0.5;exitDx=0;exitDy=0;entryX=0;entryY=0.5;entryDx=0;entryDy=0;" parent="1" source="OAjG6ugZ-eWth2I8EmIu-9" target="OAjG6ugZ-eWth2I8EmIu-7" edge="1">
          <mxGeometry relative="1" as="geometry" />
        </mxCell>
        <mxCell id="OAjG6ugZ-eWth2I8EmIu-9" value="Database" style="rounded=0;whiteSpace=wrap;html=1;" parent="1" vertex="1">
          <mxGeometry x="270" y="270" width="120" height="60" as="geometry" />
        </mxCell>
        <mxCell id="OAjG6ugZ-eWth2I8EmIu-16" style="edgeStyle=orthogonalEdgeStyle;rounded=0;orthogonalLoop=1;jettySize=auto;html=1;exitX=0.5;exitY=1;exitDx=0;exitDy=0;" parent="1" source="OAjG6ugZ-eWth2I8EmIu-13" target="OAjG6ugZ-eWth2I8EmIu-15" edge="1">
          <mxGeometry relative="1" as="geometry" />
        </mxCell>
        <mxCell id="OAjG6ugZ-eWth2I8EmIu-13" value="Form list of names separated by commas" style="rounded=1;whiteSpace=wrap;html=1;" parent="1" vertex="1">
          <mxGeometry x="485" y="400" width="120" height="60" as="geometry" />
        </mxCell>
        <mxCell id="OAjG6ugZ-eWth2I8EmIu-17" style="edgeStyle=orthogonalEdgeStyle;rounded=0;orthogonalLoop=1;jettySize=auto;html=1;exitX=0.5;exitY=1;exitDx=0;exitDy=0;entryX=0.5;entryY=0;entryDx=0;entryDy=0;" parent="1" source="OAjG6ugZ-eWth2I8EmIu-15" target="OAjG6ugZ-eWth2I8EmIu-2" edge="1">
          <mxGeometry relative="1" as="geometry" />
        </mxCell>
        <mxCell id="OAjG6ugZ-eWth2I8EmIu-15" value="Print list of names to the screen" style="rounded=1;whiteSpace=wrap;html=1;" parent="1" vertex="1">
          <mxGeometry x="485" y="530" width="120" height="60" as="geometry" />
        </mxCell>
        <mxCell id="eFhrA7BcUCs0QXQs2Ede-2" style="edgeStyle=orthogonalEdgeStyle;rounded=0;orthogonalLoop=1;jettySize=auto;html=1;exitX=1;exitY=0.5;exitDx=0;exitDy=0;entryX=0;entryY=0.5;entryDx=0;entryDy=0;" edge="1" parent="1" source="eFhrA7BcUCs0QXQs2Ede-1" target="OAjG6ugZ-eWth2I8EmIu-5">
          <mxGeometry relative="1" as="geometry" />
        </mxCell>
        <mxCell id="eFhrA7BcUCs0QXQs2Ede-1" value="User interface" style="rounded=0;whiteSpace=wrap;html=1;" vertex="1" parent="1">
          <mxGeometry x="280" y="160" width="120" height="60" as="geometry" />
        </mxCell>
        <mxCell id="eFhrA7BcUCs0QXQs2Ede-4" style="edgeStyle=orthogonalEdgeStyle;rounded=0;orthogonalLoop=1;jettySize=auto;html=1;exitX=1;exitY=0.5;exitDx=0;exitDy=0;entryX=0;entryY=0.5;entryDx=0;entryDy=0;" edge="1" parent="1" source="eFhrA7BcUCs0QXQs2Ede-3" target="OAjG6ugZ-eWth2I8EmIu-15">
          <mxGeometry relative="1" as="geometry" />
        </mxCell>
        <mxCell id="eFhrA7BcUCs0QXQs2Ede-3" value="User interface" style="rounded=0;whiteSpace=wrap;html=1;" vertex="1" parent="1">
          <mxGeometry x="180" y="540" width="120" height="60" as="geometry" />
        </mxCell>
        <mxCell id="eFhrA7BcUCs0QXQs2Ede-6" style="edgeStyle=orthogonalEdgeStyle;rounded=0;orthogonalLoop=1;jettySize=auto;html=1;exitX=1;exitY=0.5;exitDx=0;exitDy=0;entryX=0;entryY=0.5;entryDx=0;entryDy=0;" edge="1" parent="1" source="eFhrA7BcUCs0QXQs2Ede-5" target="OAjG6ugZ-eWth2I8EmIu-13">
          <mxGeometry relative="1" as="geometry" />
        </mxCell>
        <mxCell id="eFhrA7BcUCs0QXQs2Ede-5" value="Instructor" style="rounded=0;whiteSpace=wrap;html=1;" vertex="1" parent="1">
          <mxGeometry x="250" y="400" width="120" height="60" as="geometry" />
        </mxCell>
      </root>
    </mxGraphModel>
  </diagram>
</mxfile>
